<?xml version="1.0" encoding="iso-8859-1"?>
<!-- Generator: Adobe Illustrator 17.1.0, SVG Export Plug-In . SVG Version: 6.00 Build 0)  -->
<!DOCTYPE svg PUBLIC "-//W3C//DTD SVG 1.1//EN" "http://www.w3.org/Graphics/SVG/1.1/DTD/svg11.dtd">
<svg version="1.1" id="Capa_1" xmlns="http://www.w3.org/2000/svg" xmlns:xlink="http://www.w3.org/1999/xlink" x="0px" y="0px"
	 viewBox="0 0 470.703 470.703" style="enable-background:new 0 0 470.703 470.703;" xml:space="preserve">
<path d="M457.078,98.725c7.628-0.698,13.625-7.123,13.625-14.931V64.928c0-8.271-6.729-15-15-15H15c-8.271,0-15,6.729-15,15v18.866
	c0,7.565,5.633,13.822,12.922,14.839c-0.031,0.735-0.027,1.478,0.018,2.226l16.435,271.05H15c-8.271,0-15,6.729-15,15v18.866
	c0,8.271,6.729,15,15,15h440.703c8.271,0,15-6.729,15-15v-18.866c0-8.271-6.729-15-15-15H440.62l16.435-271.05
	C457.098,100.142,457.105,99.43,457.078,98.725z M28.324,106.724l63.962,59.84c0.993,0.93,1.191,1.598,1.194,1.698
	c-0.04,0.121-0.446,0.688-1.688,1.242L33.701,195.41L28.324,106.724z M35.92,232.008l28.229,29.201
	c2.567,2.655,2.587,7.161,0.043,9.839l-24.351,25.636L35.92,232.008z M58.894,298.407l-15.915,50.013l-1.896-31.262L58.894,298.407z
	 M74.268,250.094l-35.778-37.01c-0.898-0.929-1.223-1.746-1.146-2.145c0.077-0.397,0.684-1.035,1.863-1.562l55.958-24.955
	L74.268,250.094z M103.89,157.008c-0.426-0.478-0.874-0.946-1.356-1.397L41.804,98.794h80.612L103.89,157.008z M428.339,98.794
	l-60.026,56.788c-0.725,0.686-1.38,1.408-1.977,2.153L347.58,98.794H428.339z M374.701,184.022l56.081,25.291
	c1.278,0.577,1.824,1.25,1.903,1.651c0.078,0.401-0.173,1.23-1.14,2.247l-35.628,37.483L374.701,184.022z M406.686,271.202
	c-2.565-2.756-2.541-7.39,0.054-10.119l27.315-28.737l-3.886,64.09L406.686,271.202z M428.915,317.107l-1.899,31.315l-16.13-50.689
	L428.915,317.107z M436.298,195.346l-57.156-25.776c-1.318-0.595-1.693-1.205-1.713-1.3c-0.014-0.097,0.142-0.797,1.192-1.791
	l63.044-59.642L436.298,195.346z M51.245,371.909l85.876-269.863c0.345-1.084,0.597-2.171,0.759-3.251h8.956v7.311
	c0,8.271,6.729,15,15,15h20.008v88.898c-0.026,0.027-0.055,0.05-0.08,0.077l-38.988,41.354h-1.645c-6.065,0-11,4.935-11,11v32.672
	c0,6.065,4.935,11,11,11h97.446c6.065,0,11-4.935,11-11v-32.672c0-6.065-4.935-11-11-11h-1.635l-38.77-41.334
	c-0.41-0.437-0.86-0.826-1.328-1.189v-87.806h21.029c8.272,0,15-6.729,15-15v-7.311h99.242c0.161,1.08,0.414,2.167,0.759,3.251
	l85.875,269.863H51.245z M163.39,251.434l26.561-28.173l26.426,28.173H163.39z"/>
<g>
</g>
<g>
</g>
<g>
</g>
<g>
</g>
<g>
</g>
<g>
</g>
<g>
</g>
<g>
</g>
<g>
</g>
<g>
</g>
<g>
</g>
<g>
</g>
<g>
</g>
<g>
</g>
<g>
</g>
</svg>
