<?xml version="1.0" encoding="iso-8859-1"?>
<!-- Generator: Adobe Illustrator 17.1.0, SVG Export Plug-In . SVG Version: 6.00 Build 0)  -->
<!DOCTYPE svg PUBLIC "-//W3C//DTD SVG 1.1//EN" "http://www.w3.org/Graphics/SVG/1.1/DTD/svg11.dtd">
<svg xmlns="http://www.w3.org/2000/svg" xmlns:xlink="http://www.w3.org/1999/xlink" version="1.1" id="Capa_1" x="0px" y="0px" viewBox="0 0 296.439 296.439" style="enable-background:new 0 0 296.439 296.439;" xml:space="preserve" width="512px" height="512px">
<g>
	<path d="M294.31,246.934l-42.295-73.572c-4.404-7.661-14.188-10.299-21.846-5.896c-7.66,4.404-10.301,14.304-5.896,21.964   l28.513,49.717h-61.694l-0.303-17.246l-47.709,33.111l48.85,31.553l-0.273-15.418h88.783c5.711,0,10.989-3.162,13.849-8.105   C297.148,258.097,297.157,251.885,294.31,246.934z"/>
	<path d="M148.22,57.877l30.948,53.604l-14.429,8.674l52.582,24.733l2.822-58.038l-13.545,8.142l-44.523-77.116   c-2.858-4.95-8.141-8-13.856-8c-5.717,0-10.999,3.05-13.856,8L92.013,91.233c-4.418,7.653-1.796,17.438,5.856,21.856   c7.653,4.418,17.438,1.796,21.856-5.856L148.22,57.877z"/>
	<path d="M99.22,239.145H43.783l31.312-54.08l15.042,8.276l-4.871-57.934l-51.675,26.558l13.508,7.478L2.161,246.882   c-2.872,4.949-2.882,11.173-0.026,16.131c2.855,4.959,8.143,8.133,13.865,8.133h83.22c8.837,0,16-7.163,16-16   S108.057,239.145,99.22,239.145z"/>
	<path d="M169.453,171.177c-0.689-1.32-2.057-2.031-3.547-2.031h-16.421l8.712-26.57c0.619-1.879-0.227-3.985-1.992-4.879   c-1.763-0.894-3.916-0.396-5.063,1.217l-31.865,44.688c-0.87,1.22-0.985,2.934-0.299,4.266c0.686,1.331,2.058,2.279,3.556,2.279   h16.249l-8.564,27.35c-0.588,1.883,0.286,3.854,2.058,4.723c0.564,0.276,1.165,0.378,1.759,0.378c1.273,0,2.512-0.622,3.282-1.726   l31.869-45.606C170.039,174.042,170.143,172.499,169.453,171.177z"/>
</g>
<g>
</g>
<g>
</g>
<g>
</g>
<g>
</g>
<g>
</g>
<g>
</g>
<g>
</g>
<g>
</g>
<g>
</g>
<g>
</g>
<g>
</g>
<g>
</g>
<g>
</g>
<g>
</g>
<g>
</g>
</svg>
