<?xml version="1.0" encoding="iso-8859-1"?>
<!-- Generator: Adobe Illustrator 19.0.0, SVG Export Plug-In . SVG Version: 6.00 Build 0)  -->
<svg version="1.1" id="Layer_1" xmlns="http://www.w3.org/2000/svg" xmlns:xlink="http://www.w3.org/1999/xlink" x="0px" y="0px"
	 viewBox="0 0 512 512" style="enable-background:new 0 0 512 512;" xml:space="preserve">
<path style="fill:#D59E6C;" d="M406.069,512H105.931c-19.501,0-35.31-15.809-35.31-35.31V70.621c0-19.501,15.809-35.31,35.31-35.31
	h300.138c19.501,0,35.31,15.809,35.31,35.31V476.69C441.379,496.191,425.57,512,406.069,512z"/>
<path style="fill:#EFF2FA;" d="M406.069,485.517H105.931c-4.875,0-8.828-3.953-8.828-8.828V70.621c0-4.875,3.953-8.828,8.828-8.828
	h300.138c4.875,0,8.828,3.953,8.828,8.828V476.69C414.896,481.565,410.944,485.517,406.069,485.517z"/>
<path style="fill:#C7CFE2;" d="M305.309,49.309c-3.31-3.31-7.801-5.171-12.483-5.171h-1.515c-4.875,0-8.828-3.953-8.828-8.828
	v-7.329c0-14.34-10.738-27.193-25.058-27.944c-15.273-0.8-27.907,11.347-27.907,26.445v8.828c0,4.875-3.953,8.828-8.828,8.828
	h-1.516c-4.682,0-9.173,1.86-12.483,5.171l-30.138,30.14h158.897L305.309,49.309z M256,17.655c4.875,0,8.828,3.953,8.828,8.828
	S260.875,35.31,256,35.31c-4.875,0-8.828-3.953-8.828-8.828C247.172,21.606,251.125,17.655,256,17.655z"/>
<g>
	<path style="fill:#AFB9D2;" d="M256,35.31c-4.875,0-8.828-3.953-8.828-8.828v17.655c0,4.875,3.953,8.828,8.828,8.828
		c4.875,0,8.828-3.953,8.828-8.828V26.483C264.828,31.358,260.875,35.31,256,35.31z"/>
	<path style="fill:#AFB9D2;" d="M326.621,88.276H185.379c-4.875,0-8.828-3.953-8.828-8.828l0,0c0-4.875,3.953-8.828,8.828-8.828
		h141.241c4.875,0,8.828,3.953,8.828,8.828l0,0C335.448,84.323,331.496,88.276,326.621,88.276z"/>
</g>
<g>
	<path style="fill:#D7DEED;" d="M176.552,264.827h-35.31c-4.875,0-8.828-3.953-8.828-8.828v-35.31c0-4.875,3.953-8.828,8.828-8.828
		h35.31c4.875,0,8.828,3.953,8.828,8.828V256C185.379,260.875,181.427,264.827,176.552,264.827z"/>
	<path style="fill:#D7DEED;" d="M176.552,185.379h-35.31c-4.875,0-8.828-3.953-8.828-8.828v-35.31c0-4.875,3.953-8.828,8.828-8.828
		h35.31c4.875,0,8.828,3.953,8.828,8.828v35.31C185.379,181.427,181.427,185.379,176.552,185.379z"/>
	<path style="fill:#D7DEED;" d="M176.552,423.724h-35.31c-4.875,0-8.828-3.953-8.828-8.828v-35.31c0-4.875,3.953-8.828,8.828-8.828
		h35.31c4.875,0,8.828,3.953,8.828,8.828v35.31C185.379,419.771,181.427,423.724,176.552,423.724z"/>
	<path style="fill:#D7DEED;" d="M176.552,344.276h-35.31c-4.875,0-8.828-3.953-8.828-8.828v-35.31c0-4.875,3.953-8.828,8.828-8.828
		h35.31c4.875,0,8.828,3.953,8.828,8.828v35.31C185.379,340.323,181.427,344.276,176.552,344.276z"/>
</g>
<path style="fill:#AFB9D2;" d="M282.483,229.517H220.69c-4.875,0-8.828-3.953-8.828-8.828s3.953-8.828,8.828-8.828h61.793
	c4.875,0,8.828,3.953,8.828,8.828S287.358,229.517,282.483,229.517z"/>
<path style="fill:#C7CFE2;" d="M317.793,264.827H220.69c-4.875,0-8.828-3.953-8.828-8.828c0-4.875,3.953-8.828,8.828-8.828h97.103
	c4.875,0,8.828,3.953,8.828,8.828C326.621,260.875,322.668,264.827,317.793,264.827z"/>
<g>
	<path style="fill:#AFB9D2;" d="M317.793,150.069H220.69c-4.875,0-8.828-3.953-8.828-8.828c0-4.875,3.953-8.828,8.828-8.828h97.103
		c4.875,0,8.828,3.953,8.828,8.828C326.621,146.116,322.668,150.069,317.793,150.069z"/>
	<path style="fill:#AFB9D2;" d="M282.483,388.414H220.69c-4.875,0-8.828-3.953-8.828-8.828s3.953-8.828,8.828-8.828h61.793
		c4.875,0,8.828,3.953,8.828,8.828S287.358,388.414,282.483,388.414z"/>
</g>
<path style="fill:#C7CFE2;" d="M335.448,423.724H220.69c-4.875,0-8.828-3.953-8.828-8.828c0-4.875,3.953-8.828,8.828-8.828h114.759
	c4.875,0,8.828,3.953,8.828,8.828C344.276,419.771,340.323,423.724,335.448,423.724z"/>
<path style="fill:#AFB9D2;" d="M317.793,308.965H220.69c-4.875,0-8.828-3.953-8.828-8.828s3.953-8.828,8.828-8.828h97.103
	c4.875,0,8.828,3.953,8.828,8.828S322.668,308.965,317.793,308.965z"/>
<g>
	<path style="fill:#C7CFE2;" d="M379.586,185.379H220.69c-4.875,0-8.828-3.953-8.828-8.828c0-4.875,3.953-8.828,8.828-8.828h158.897
		c4.875,0,8.828,3.953,8.828,8.828C388.414,181.427,384.461,185.379,379.586,185.379z"/>
	<path style="fill:#C7CFE2;" d="M379.586,344.276H220.69c-4.875,0-8.828-3.953-8.828-8.828s3.953-8.828,8.828-8.828h158.897
		c4.875,0,8.828,3.953,8.828,8.828S384.461,344.276,379.586,344.276z"/>
</g>
<g>
	<path style="fill:#82889D;" d="M150.069,176.552c-2.259,0-4.518-0.862-6.241-2.586l-17.655-17.655
		c-3.448-3.448-3.448-9.035,0-12.483c3.448-3.448,9.035-3.448,12.483,0l11.413,11.414l29.069-29.069
		c3.448-3.448,9.035-3.448,12.483,0s3.448,9.035,0,12.483l-35.31,35.31C154.586,175.69,152.328,176.552,150.069,176.552z"/>
	<path style="fill:#82889D;" d="M150.069,335.448c-2.259,0-4.518-0.862-6.241-2.586l-17.655-17.655
		c-3.448-3.448-3.448-9.035,0-12.483c3.448-3.448,9.035-3.448,12.483,0l11.413,11.414l29.069-29.069
		c3.448-3.448,9.035-3.448,12.483,0s3.448,9.035,0,12.483l-35.31,35.31C154.586,334.586,152.328,335.448,150.069,335.448z"/>
</g>
<g>
</g>
<g>
</g>
<g>
</g>
<g>
</g>
<g>
</g>
<g>
</g>
<g>
</g>
<g>
</g>
<g>
</g>
<g>
</g>
<g>
</g>
<g>
</g>
<g>
</g>
<g>
</g>
<g>
</g>
</svg>
